<svg width="328" height="510" viewBox="0 0 328 510" fill="none" xmlns="http://www.w3.org/2000/svg">
<path d="M327.5 41.5198V500C327.5 505.247 323.247 509.5 318 509.5H9.99999C4.75329 509.5 0.5 505.247 0.5 500V41.5197C0.5 36.273 4.75329 32.0198 10 32.0198H52.5271C56.1613 32.0198 59.5372 30.1404 61.4518 27.0514L75.1223 4.99522C76.8546 2.20036 79.9089 0.5 83.1971 0.5H241.931C244.835 0.5 247.58 1.8284 249.382 4.10608L268.31 28.0341C270.302 30.5515 273.335 32.0198 276.545 32.0198H318C323.247 32.0198 327.5 36.2731 327.5 41.5198Z" fill="#E9E9EB" stroke="black"/>
</svg>
